<?xml version="1.0" encoding="utf-8"?>
<!-- Generator: Adobe Illustrator 21.1.0, SVG Export Plug-In . SVG Version: 6.00 Build 0)  -->
<svg version="1.1" id="Layer_1" xmlns="http://www.w3.org/2000/svg" xmlns:xlink="http://www.w3.org/1999/xlink" x="0px" y="0px"
	 viewBox="0 0 455.3 157.7" style="enable-background:new 0 0 455.3 157.7;" xml:space="preserve">
<style type="text/css">
	.st0{fill:#1F1C1A;}
</style>
<g>
	<path class="st0" d="M135.5,80.1c21.8,0,34.7-10.9,34.7-23.5v-4.1c0-1.3-0.9-2.2-2.2-2.2h-21.8c-1.3,0-2.2,0.9-2.2,2.2
		c0,1.9-2.6,7.5-8.6,7.5c-6.2,0-8.6-4.9-8.6-10v-1.9c0-1.3,0.9-2.2,2.2-2.2H168c1.3,0,2.2-0.9,2.2-2.2V32.3
		c0-19.7-12.9-30.6-34.7-30.6s-34.7,10.9-34.7,30.8v16.8C100.8,69.2,113.7,80.1,135.5,80.1L135.5,80.1z M129.1,32.9
		c-1.3,0-2.2-0.9-2.2-2.2v-2.3c0-2.3,2.6-6.7,8.6-6.7c6,0,8.4,4.4,8.4,6.7v2.3c0,1.3-0.9,2.2-2.2,2.2H129.1L129.1,32.9z"/>
	<path class="st0" d="M205,80.1c12.9,0,17-5.5,18.7-5.5c0.3,0,0.7,0.1,0.7,0.7v1.2c0,1.3,0.9,2.2,2.2,2.2h17.4
		c1.5,0,2.2-0.9,2.2-2.2V5.3c0-1.3-0.9-2.2-2.2-2.2h-17.4c-1.5,0-2.2,0.9-2.2,2.2v1.2c0,0.6-0.4,0.7-0.7,0.7
		c-1.7,0-4.4-5.5-17.3-5.5c-16.4,0-29.6,13.1-29.6,29.3v19.7C176.9,67,188.6,80.1,205,80.1L205,80.1z M211.6,57.1
		c-7.4,0-8.6-6.1-8.6-10.5V35.1c0-4.4,1.2-10.5,8.6-10.5c7.4,0,8.6,6.1,8.6,10.5v11.6C220.1,51,219,57.1,211.6,57.1L211.6,57.1z"/>
	<path class="st0" d="M286,80.1c11.5,0,15.5-5.5,17.3-5.5c0.3,0,0.7,0.1,0.7,0.7v1.2c0,1.3,0.9,2.2,2.2,2.2h17.4
		c1.5,0,2.2-0.9,2.2-2.2V5.3c0-1.3-0.9-2.2-2.2-2.2h-21.8c-1.5,0-2.2,0.9-2.2,2.2v41.4c0,4.4-1.2,10.5-8.6,10.5
		c-7.4,0-8.6-6.1-8.6-10.5V5.3c0-1.3-0.9-2.2-2.2-2.2h-21.8c-1.5,0-2.2,0.9-2.2,2.2v45.4C256.4,68.4,269.6,80.1,286,80.1L286,80.1z"
		/>
	<path class="st0" d="M3.9,129.5h43c26,0,44.5-12.7,44.5-36v-6.1c0-10.2-3.6-18.7-11-24.3c-0.7-0.5-0.7-0.5-0.2-1.2
		c4.2-5.6,6.8-11.9,6.8-19.7v-4.1c0-23.3-18.5-36-44.5-36H3.9c-1.7,0-2.5,1-2.5,2.5V127C1.3,128.5,2.4,129.5,3.9,129.5L3.9,129.5z
		 M36,51.4c-1.4,0-2.4-1-2.4-2.5V31.5c0-1.5,1-2.5,2.4-2.5h6.5c8.3,0,12.2,3.9,12.2,8.8v4.9c0,4.9-3.1,8.7-12.2,8.7H36L36,51.4z
		 M36,102.7c-1.4,0-2.4-1-2.4-2.5V80.8c0-1.5,1-2.5,2.4-2.5h10.9c8.3,0,12.2,4.8,12.2,10.5v3.4c0,5.8-3.9,10.5-12.2,10.5H36
		L36,102.7z"/>
	<path class="st0" d="M379.8,156.3h-34.2c-1.9,0-3.2-1.3-3.2-3.3v-20.6c0-2-1.3-3.3-3.2-3.3h-14.1c-1.9,0-3.2-1.3-3.2-3.3V97.5
		c0-2.2,1.1-3.5,3-3.5h14.3c1.9,0,3.2-1.3,3.2-3.3V6.2c0-2,1.3-3.3,3.2-3.3h33.1c2.1,0,3.4,0.9,4.3,2L452.2,91
		c1.3,1.5,1.7,3.3,1.7,5.9v28.9c0,2-1.3,3.3-3.2,3.3h-64.5c-1.9,0-3.2,1.3-3.2,3.3V153C383,154.9,381.7,156.3,379.8,156.3
		L379.8,156.3z M409.3,94c2.1,0,2.6-2,1.7-2.8L386.2,62c-1.1-1.3-3.2-1.5-3.2,0.9v27.8c0,2,1.3,3.3,3.2,3.3H409.3L409.3,94z"/>
	<path class="st0" d="M106.3,125.4V97.8c0-2.2,1.5-3.7,3.7-3.7h194.3c2.2,0,3.7,1.2,3.7,3.7v27.5c0,2.2-1.5,3.7-3.7,3.7H110
		C107.8,129.1,106.3,127.8,106.3,125.4"/>
</g>
</svg>
